<?xml version="1.0" standalone="no"?>
<!DOCTYPE svg PUBLIC "-//W3C//DTD SVG 20010904//EN"
 "http://www.w3.org/TR/2001/REC-SVG-20010904/DTD/svg10.dtd">
<svg version="1.0" xmlns="http://www.w3.org/2000/svg"
 width="1200.000000pt" height="1200.000000pt" viewBox="0 0 1200.000000 1200.000000"
 preserveAspectRatio="xMidYMid meet">
<metadata>
Created by potrace 1.14, written by Peter Selinger 2001-2017
</metadata>
<g transform="translate(0.000000,1200.000000) scale(0.100000,-0.100000)"
fill="#000000" stroke="none">
<path d="M5718 10245 c-2 -2 -32 -6 -68 -9 -145 -14 -179 -18 -270 -32 -52 -9
-108 -18 -125 -20 -271 -43 -633 -149 -900 -264 -27 -12 -59 -25 -70 -30 -148
-62 -422 -209 -595 -322 -796 -514 -1415 -1306 -1717 -2193 -91 -268 -176
-638 -197 -855 -2 -25 -7 -72 -10 -105 -14 -133 -16 -168 -15 -355 0 -267 7
-398 30 -570 5 -41 12 -95 15 -120 21 -175 133 -637 183 -755 5 -11 19 -49 32
-85 91 -263 269 -614 440 -871 104 -156 279 -386 354 -465 5 -6 51 -55 100
-109 77 -83 168 -171 335 -319 19 -18 55 -47 80 -66 25 -19 47 -37 50 -40 17
-19 213 -159 310 -223 589 -385 1247 -609 1975 -674 168 -15 764 -6 795 12 3
1 37 6 75 9 39 4 77 9 85 11 8 2 35 7 60 10 162 22 465 94 650 155 1350 447
2399 1543 2773 2900 32 114 49 182 63 250 2 14 9 45 14 70 5 25 11 54 14 65
10 52 18 105 36 250 19 163 25 265 25 460 -1 179 -10 405 -20 467 -2 13 -6 50
-10 83 -10 92 -14 120 -35 235 -16 92 -18 102 -34 179 -15 67 -44 182 -76 296
-16 57 -90 274 -106 310 -7 17 -32 77 -55 135 -39 97 -137 299 -192 395 -73
130 -99 173 -181 295 -77 117 -198 285 -216 300 -3 3 -25 30 -50 60 -98 122
-318 351 -429 448 -36 32 -83 73 -106 93 -22 19 -60 50 -85 69 -25 19 -47 37
-50 40 -9 10 -258 190 -263 190 -2 0 -37 22 -78 49 -332 217 -883 452 -1237
526 -9 2 -55 12 -102 23 -47 11 -101 23 -120 26 -19 3 -46 8 -60 11 -13 3 -42
7 -65 10 -22 3 -51 8 -65 10 -31 6 -85 13 -165 21 -33 4 -73 8 -90 11 -33 4
-633 12 -637 8z m527 -100 c72 -3 141 -8 155 -9 14 -2 55 -7 92 -10 37 -4 77
-9 90 -11 13 -2 39 -6 58 -9 479 -76 949 -237 1370 -472 190 -105 434 -269
575 -385 172 -142 246 -209 384 -349 421 -427 766 -987 958 -1555 37 -110 85
-269 98 -325 21 -90 64 -295 69 -333 4 -27 9 -56 10 -65 25 -138 50 -476 50
-677 0 -115 -15 -349 -28 -440 -3 -16 -10 -68 -16 -115 -25 -185 -88 -454
-157 -665 -303 -931 -914 -1715 -1748 -2243 -235 -149 -526 -291 -795 -389
-232 -84 -512 -156 -745 -193 -38 -6 -81 -13 -95 -15 -224 -40 -748 -51 -1000
-20 -75 10 -313 45 -340 51 -14 3 -38 7 -55 10 -87 15 -334 81 -477 128 -271
90 -514 199 -793 355 -50 28 -380 247 -397 264 -7 7 -33 28 -58 47 -181 138
-480 425 -626 600 -417 500 -707 1069 -857 1680 -20 80 -38 156 -40 170 -3 14
-12 63 -20 110 -16 88 -23 137 -32 230 -3 30 -8 64 -10 75 -23 109 -24 835 0
874 1 3 6 33 9 66 3 33 8 71 11 85 2 13 7 41 10 62 5 35 37 200 49 254 81 375
272 848 483 1199 79 131 227 348 294 430 140 170 198 234 334 371 88 88 184
180 214 205 29 24 65 54 80 67 45 40 282 216 361 269 274 183 652 367 965 472
100 33 308 92 373 106 227 48 363 71 472 81 36 3 76 8 90 10 14 3 95 7 180 11
85 3 156 6 157 7 3 3 144 -2 298 -9z"/>
<path d="M5932 9179 c-23 -12 -49 -34 -57 -50 -41 -79 10 -182 95 -189 53 -5
71 1 106 33 68 62 53 170 -30 208 -52 24 -62 23 -114 -2z"/>
<path d="M6294 9131 c-97 -59 -53 -211 62 -211 39 0 51 5 80 34 26 26 34 42
34 70 0 52 -25 95 -65 112 -46 19 -74 18 -111 -5z"/>
<path d="M5528 9082 c-86 -52 -86 -191 0 -236 99 -51 202 8 202 115 -1 51 -14
79 -54 110 -36 28 -109 33 -148 11z"/>
<path d="M6493 8940 c-54 -28 -86 -78 -86 -135 0 -104 103 -182 198 -150 97
34 137 127 93 215 -29 55 -61 78 -118 85 -34 5 -55 1 -87 -15z"/>
<path d="M6102 8930 c-18 -11 -41 -34 -52 -52 -54 -89 16 -208 121 -208 72 0
139 69 139 143 0 68 -71 137 -140 137 -19 0 -50 -9 -68 -20z"/>
<path d="M5789 8924 c-21 -9 -46 -31 -63 -57 -73 -111 20 -255 151 -234 104
17 158 123 111 217 -38 74 -120 105 -199 74z"/>
<path d="M5119 8860 c-94 -50 -92 -203 2 -245 58 -26 111 -23 153 8 82 63 69
192 -25 239 -44 23 -85 22 -130 -2z"/>
<path d="M5433 8810 c-46 -28 -68 -66 -67 -119 1 -110 111 -168 209 -112 38
22 59 64 58 118 -2 102 -114 166 -200 113z"/>
<path d="M6748 8727 c-49 -42 -61 -93 -33 -147 33 -65 131 -78 184 -26 22 22
26 36 26 82 0 50 -3 58 -33 85 -42 37 -104 40 -144 6z"/>
<path d="M6323 8702 c-32 -10 -72 -48 -79 -77 -14 -58 13 -113 72 -143 37 -20
94 -2 129 39 46 56 25 147 -40 175 -37 15 -48 16 -82 6z"/>
<path d="M5991 8653 c-44 -9 -99 -52 -126 -98 -31 -53 -36 -120 -13 -175 20
-46 73 -97 115 -111 l34 -11 -7 -56 c-3 -32 -8 -70 -10 -87 -5 -37 -19 -258
-24 -355 0 -20 -82 118 -115 196 l-27 63 22 23 c89 92 57 251 -63 314 -33 18
-121 21 -158 6 -162 -65 -167 -293 -8 -367 47 -21 101 -25 148 -10 17 5 35
-28 117 -212 33 -74 50 -169 47 -274 -1 -57 -2 -128 -2 -158 l-1 -54 -32 38
c-18 22 -71 75 -117 120 -75 73 -82 84 -72 103 6 11 11 42 11 69 0 134 -148
221 -269 158 -58 -30 -104 -120 -94 -184 9 -62 45 -112 101 -140 68 -35 150
-22 209 31 l22 20 29 -33 c63 -73 80 -96 110 -149 30 -54 48 -109 58 -173 6
-40 6 -235 1 -245 -3 -4 -8 -47 -11 -97 -7 -101 -13 -172 -21 -260 -6 -63 -11
-125 -20 -235 -2 -36 -7 -95 -11 -132 -5 -60 -4 -68 14 -77 49 -26 165 -31
240 -10 l44 12 -5 48 c-3 27 -8 52 -10 56 -3 5 -8 35 -12 68 -4 33 -8 67 -10
75 -1 8 -5 47 -10 85 -4 39 -9 77 -10 86 -2 9 -6 68 -10 130 -4 63 -9 130 -11
149 -1 19 -6 86 -9 148 -7 130 -14 118 106 197 l83 54 18 -41 c33 -75 87 -107
174 -105 50 2 67 7 98 31 108 82 95 250 -24 308 -104 51 -212 6 -256 -107 -13
-34 -26 -48 -65 -70 -27 -14 -70 -42 -94 -61 l-45 -34 -1 25 c-2 31 -2 50 0
128 l1 62 20 -33 c65 -107 231 -21 174 90 -32 63 -117 72 -166 18 -15 -16 -30
-26 -32 -21 -5 8 158 174 254 259 25 22 68 61 95 86 28 25 53 46 56 46 3 0 12
-11 19 -25 7 -14 35 -36 61 -49 92 -46 198 -10 244 82 70 139 -61 294 -212
253 -88 -24 -141 -105 -130 -199 l6 -49 -91 -69 c-299 -227 -293 -223 -299
-206 -3 9 -4 59 -2 109 2 51 6 130 8 175 2 46 4 86 4 90 1 3 14 -7 30 -23 36
-36 73 -37 106 -4 35 34 34 86 -1 114 -15 12 -36 21 -46 21 -30 0 -76 -31 -82
-54 -2 -12 -3 15 0 59 9 163 16 240 22 246 4 3 28 13 53 23 77 28 122 94 122
177 0 131 -116 227 -242 202z"/>
<path d="M5624 8586 c-46 -46 -48 -101 -5 -148 26 -29 35 -33 80 -33 66 0 101
31 108 99 5 42 3 48 -30 81 -29 29 -42 35 -77 35 -34 0 -48 -6 -76 -34z"/>
<path d="M6540 8568 c-71 -42 -92 -142 -45 -204 14 -19 34 -38 45 -44 61 -33
153 -5 191 56 45 74 1 181 -83 202 -56 14 -72 13 -108 -10z"/>
<path d="M5020 8569 c-145 -60 -131 -265 20 -310 79 -24 173 29 199 112 20 62
-8 143 -62 181 -34 25 -118 34 -157 17z"/>
<path d="M5394 8530 c-56 -22 -80 -100 -50 -159 37 -71 156 -68 191 4 19 41
19 68 0 105 -26 49 -88 72 -141 50z"/>
<path d="M6325 8458 c-42 -12 -63 -30 -79 -69 -41 -101 61 -200 158 -154 131
62 60 261 -79 223z"/>
<path d="M6798 8437 c-52 -44 -61 -89 -28 -142 50 -81 174 -65 197 26 13 49 6
75 -28 109 -39 38 -100 42 -141 7z"/>
<path d="M4733 8364 c-34 -17 -73 -82 -73 -122 0 -105 127 -171 215 -111 81
56 79 170 -4 226 -40 27 -92 29 -138 7z"/>
<path d="M5262 8303 c-59 -29 -80 -97 -51 -162 30 -67 111 -91 176 -51 81 49
77 169 -8 212 -42 22 -74 22 -117 1z"/>
<path d="M6471 8261 c-29 -27 -33 -37 -33 -76 0 -45 5 -59 31 -86 51 -51 142
-35 177 32 55 107 -86 213 -175 130z"/>
<path d="M6123 8259 c-50 -18 -53 -92 -5 -110 33 -13 69 2 81 33 17 46 -30 94
-76 77z"/>
<path d="M6895 8185 c-16 -15 -25 -36 -25 -55 0 -80 103 -108 144 -39 47 79
-55 159 -119 94z"/>
<path d="M6275 8189 c-82 -22 -123 -119 -82 -194 30 -56 99 -84 160 -63 35 12
86 64 88 88 0 8 2 23 4 33 4 24 -14 77 -34 98 -35 36 -88 51 -136 38z"/>
<path d="M6724 8190 c-59 -24 -72 -104 -25 -151 32 -31 64 -36 106 -17 69 31
63 143 -8 168 -35 12 -44 12 -73 0z"/>
<path d="M4977 8169 c-159 -82 -103 -328 76 -331 60 -1 103 18 140 62 122 144
-48 355 -216 269z"/>
<path d="M5405 8031 c-39 -23 -51 -39 -60 -78 -8 -40 16 -95 50 -113 95 -51
201 40 160 137 -25 59 -99 86 -150 54z"/>
<path d="M7111 8039 c-81 -32 -58 -159 28 -159 55 0 88 44 82 112 -2 34 -71
63 -110 47z"/>
<path d="M6839 8016 c-62 -42 -78 -117 -40 -179 56 -90 185 -86 231 8 62 127
-75 249 -191 171z"/>
<path d="M5694 7923 c-35 -7 -66 -47 -67 -87 -2 -77 79 -128 144 -90 38 22 54
61 45 110 -10 49 -65 79 -122 67z"/>
<path d="M6251 7893 c-30 -25 -32 -87 -3 -116 50 -50 132 -14 132 59 0 64 -78
98 -129 57z"/>
<path d="M7185 7877 c-81 -26 -113 -120 -64 -188 59 -83 199 -49 215 53 14 86
-70 162 -151 135z"/>
<path d="M5197 7850 c-29 -23 -48 -77 -40 -112 8 -34 51 -75 84 -82 38 -7 91
14 113 45 18 27 21 77 5 112 -25 54 -114 75 -162 37z"/>
<path d="M6104 7810 c-30 -11 -64 -58 -64 -87 0 -32 26 -80 49 -93 53 -28 123
5 140 66 20 71 -55 140 -125 114z"/>
<path d="M4980 7796 c-39 -13 -80 -66 -80 -105 0 -14 9 -41 20 -59 55 -89 197
-55 202 48 2 44 -2 54 -25 81 -31 36 -74 49 -117 35z"/>
<path d="M6967 7762 c-46 -28 -52 -93 -11 -129 34 -31 84 -30 113 1 66 71 -19
178 -102 128z"/>
<path d="M6774 7759 c-88 -25 -92 -154 -7 -194 123 -59 214 128 93 190 -32 17
-41 17 -86 4z"/>
<path d="M6368 7716 c-56 -42 -27 -126 44 -126 61 0 91 78 46 120 -25 23 -65
26 -90 6z"/>
<path d="M5762 7662 c-52 -46 -43 -124 18 -153 41 -20 80 -10 110 28 27 35 25
75 -6 112 -20 25 -34 31 -63 31 -22 0 -47 -8 -59 -18z"/>
<path d="M6524 7639 c-103 -29 -111 -184 -11 -229 83 -37 177 22 177 112 0 34
-29 83 -60 102 -38 22 -67 26 -106 15z"/>
<path d="M4751 7623 c-12 -10 -25 -32 -30 -49 -19 -67 58 -129 120 -98 38 19
51 39 51 81 0 69 -87 110 -141 66z"/>
<path d="M5183 7630 c-29 -12 -63 -67 -63 -102 0 -65 51 -118 114 -118 56 0
116 60 116 117 0 29 -31 79 -59 96 -31 18 -73 21 -108 7z"/>
<path d="M6243 7595 c-97 -41 -67 -181 39 -190 75 -6 128 77 93 145 -25 49
-79 67 -132 45z"/>
<path d="M6994 7571 c-98 -45 -96 -188 3 -236 42 -20 81 -19 120 5 45 27 67
65 67 115 0 100 -97 159 -190 116z"/>
<path d="M4955 7548 c-54 -47 -24 -131 46 -131 23 0 39 8 56 27 33 39 23 90
-24 115 -32 16 -49 14 -78 -11z"/>
<path d="M6750 7527 c-75 -38 -60 -153 23 -175 62 -16 117 29 117 96 0 65 -80
110 -140 79z"/>
<path d="M5342 7427 c-74 -41 -72 -161 4 -195 95 -44 192 50 148 144 -25 53
-101 79 -152 51z"/>
<path d="M5081 7409 c-171 -37 -148 -293 26 -293 60 1 105 24 133 68 49 80 6
203 -78 222 -15 3 -31 7 -37 8 -5 1 -25 -1 -44 -5z"/>
<path d="M5580 7388 c-19 -13 -40 -39 -49 -61 -12 -33 -12 -42 4 -82 19 -50
53 -75 108 -77 81 -3 142 79 116 158 -24 75 -113 107 -179 62z"/>
<path d="M6653 7340 c-43 -18 -70 -86 -50 -125 21 -44 50 -65 87 -65 69 0 116
61 98 127 -14 52 -84 85 -135 63z"/>
<path d="M6847 7302 c-66 -68 -18 -172 78 -172 25 0 80 48 87 77 9 35 -12 83
-45 103 -46 29 -88 26 -120 -8z"/>
<path d="M7373 5020 c-29 -12 -55 -63 -49 -97 6 -34 49 -73 80 -73 39 0 76 43
76 87 -1 42 -13 63 -47 81 -25 14 -30 14 -60 2z"/>
<path d="M5784 5012 c-6 -4 -43 -97 -83 -207 -40 -110 -101 -276 -136 -370
-34 -93 -80 -217 -101 -275 -34 -95 -68 -158 -86 -159 -4 -1 -18 -5 -32 -10
-18 -8 -23 -15 -19 -31 5 -20 11 -20 141 -18 l136 3 1 28 c2 29 1 30 -72 29
-24 0 -43 1 -42 2 0 0 19 60 43 131 l42 130 196 3 195 2 33 -92 c33 -92 39
-143 19 -163 -5 -5 -24 -15 -41 -21 -21 -7 -32 -17 -33 -32 -2 -22 0 -22 170
-22 l171 0 2 30 c2 32 1 33 -65 32 -31 0 -32 2 -43 54 -7 31 -50 153 -97 272
-47 119 -102 262 -123 317 -93 239 -147 369 -155 372 -6 1 -15 -1 -21 -5z m15
-289 c13 -38 29 -81 36 -98 21 -50 105 -281 105 -288 0 -4 -76 -7 -170 -7
l-169 0 51 143 c102 289 113 317 118 317 3 0 16 -30 29 -67z"/>
<path d="M3865 5000 c-81 -21 -142 -67 -178 -134 -17 -32 -22 -58 -22 -121 0
-142 49 -196 281 -312 216 -108 274 -163 274 -261 0 -76 -32 -127 -105 -165
-56 -30 -170 -28 -243 3 -82 35 -151 130 -152 208 0 29 -3 32 -30 32 -28 0
-36 -10 -32 -41 1 -4 2 -60 3 -125 1 -151 2 -154 45 -154 31 0 34 2 34 30 l0
30 41 -21 c23 -11 71 -27 108 -35 273 -58 480 78 457 299 -13 124 -72 184
-285 288 -173 85 -222 117 -251 165 -25 40 -33 114 -17 154 49 118 223 147
341 56 37 -28 95 -132 100 -182 2 -16 4 -32 5 -36 0 -5 12 -8 26 -8 22 0 25 4
26 38 1 55 1 265 0 280 -1 7 -16 12 -39 12 -37 0 -38 -1 -34 -31 l5 -31 -50
25 c-80 41 -225 59 -308 37z"/>
<path d="M7888 4996 c-44 -12 -107 -52 -136 -86 -57 -67 -70 -195 -29 -276 42
-82 84 -113 287 -215 160 -80 211 -120 235 -184 17 -43 15 -118 -5 -154 -63
-118 -294 -128 -408 -18 -38 36 -56 71 -73 140 -10 42 -14 47 -38 47 l-27 0 3
-147 c2 -82 5 -154 8 -160 2 -7 21 -13 40 -13 32 0 36 3 35 23 -3 37 -1 38 38
18 87 -44 231 -62 331 -40 143 31 231 126 236 254 7 155 -50 219 -308 348
-218 109 -257 147 -257 255 0 40 36 105 73 129 70 48 213 38 277 -19 49 -43
94 -130 103 -198 3 -18 11 -26 30 -28 l27 -3 0 165 0 166 -39 0 c-38 0 -39 -1
-35 -30 l5 -29 -54 24 c-96 44 -223 57 -319 31z"/>
<path d="M4460 4976 c-1 -6 -3 -78 -6 -159 l-5 -148 27 3 c22 2 28 9 31 33 9
94 14 116 31 146 34 62 61 73 183 77 l109 4 0 -430 c-1 -306 -4 -439 -13 -461
-9 -24 -21 -34 -49 -43 -30 -9 -38 -16 -38 -35 l0 -23 176 0 175 0 -3 32 c-3
32 -3 32 -61 32 l-58 1 1 459 c0 252 2 462 5 465 4 8 118 5 183 -4 75 -11 116
-71 128 -189 7 -64 8 -66 34 -66 l27 0 -3 108 c-1 59 -3 130 -3 158 l-1 50
-435 1 c-310 0 -435 -3 -435 -11z"/>
<path d="M6270 4866 c-1 -67 -3 -137 -4 -156 -1 -31 2 -35 27 -38 24 -3 27 0
27 25 1 55 13 109 33 152 29 62 74 80 198 81 l95 0 -2 -432 c-1 -280 -5 -442
-12 -459 -7 -17 -25 -32 -51 -43 -29 -11 -41 -22 -41 -36 0 -19 6 -20 178 -20
l178 0 -1 26 c-2 34 -14 40 -73 38 l-48 -2 2 462 c1 253 2 463 3 466 0 3 47 3
104 0 161 -8 192 -40 211 -215 2 -16 4 -33 5 -37 0 -5 13 -8 27 -8 l26 0 -4
158 -3 157 -436 1 -436 1 -3 -121z"/>
<path d="M7398 4685 c-32 -18 -59 -23 -115 -24 -41 -1 -43 -3 -43 -30 0 -29 2
-30 53 -33 51 -3 52 -4 51 -33 -1 -16 -3 -141 -4 -278 -1 -239 -2 -248 -23
-273 -12 -14 -31 -26 -42 -28 -12 -2 -21 -12 -23 -24 -3 -22 -2 -22 152 -22
l156 0 0 29 c0 17 -5 29 -12 28 -7 0 -29 1 -48 1 l-35 2 3 350 3 350 -23 0
c-13 -1 -35 -7 -50 -15z"/>
</g>
</svg>
